<svg width="222" height="252" viewBox="0 0 222 252" fill="none" xmlns="http://www.w3.org/2000/svg">
<path d="M131.557 183.449C135.557 179.649 139.757 173.149 136.657 163.649C136.457 163.049 136.257 162.349 136.157 161.549L133.657 154.549L128.157 139.249L81.8574 9.2493C82.5574 7.7493 82.7574 5.94929 81.9574 4.04929C81.2574 2.24929 79.6574 0.8493 77.7574 0.2493C73.3574 -0.9507 69.3574 2.3493 69.3574 6.54929C69.3574 9.14929 70.8574 11.3493 72.9574 12.3493L74.0574 15.5493H37.7574C32.0574 15.5493 28.0574 21.2493 29.9574 26.6493L30.3574 27.7493H8.95741C3.25741 27.7493 -0.742592 33.4493 1.15741 38.8493L4.45741 47.9493C4.55741 48.2493 5.05741 48.2493 5.15741 47.9493C5.55741 45.8493 7.35741 44.2493 9.65741 44.2493H12.3574H39.2574C38.1574 46.2493 37.9574 48.6493 38.7574 50.9493L39.1574 51.9493H17.3574C11.6574 51.9493 7.6574 57.6493 9.5574 63.0493L12.8574 72.1493C12.9574 72.4493 13.4574 72.4493 13.5574 72.1493C13.9574 70.0493 15.7574 68.4493 18.0574 68.4493H20.7574H47.1574C51.1574 68.4493 53.9574 64.5493 52.5574 60.7493L50.9574 56.2493H88.5574L90.7574 62.2493C79.2574 79.1493 71.4574 95.1493 71.4574 95.1493L57.7574 101.449C11.0574 122.949 -11.4426 176.549 5.75741 224.949L15.3574 251.849H67.7574L56.2574 219.649C56.2574 219.649 70.7574 212.849 70.7574 212.949L84.8574 251.949H141.257L119.557 190.649C120.157 190.349 128.957 185.949 131.557 183.449ZM46.6574 39.8493C46.2574 39.8493 45.8574 39.8493 45.4574 39.9493L42.6574 31.9493H80.0574L82.8574 39.8493H46.6574Z" fill="white"/>
<path d="M176.557 80.2493C175.357 79.8493 174.057 80.5493 174.157 81.8493C174.157 82.2493 175.557 86.4493 175.657 86.6493C175.657 86.8493 181.557 102.449 163.957 102.449C146.357 102.449 152.257 86.5493 152.257 86.5493C152.257 86.5493 153.357 82.9493 153.857 81.8493C154.157 81.0493 153.557 80.1493 152.757 80.1493H152.657C150.357 80.0493 148.157 78.7493 147.157 76.7493C147.057 76.6493 147.057 76.4493 146.957 76.3493C146.957 76.2493 146.857 76.0493 146.857 75.9493C146.757 75.6493 146.657 75.3493 146.657 74.9493C146.657 74.8493 146.657 74.7493 146.657 74.6493C146.657 74.4493 146.657 74.2493 146.657 73.9493C146.657 73.8493 146.657 73.6493 146.657 73.5493C146.657 73.2493 146.757 73.0493 146.857 72.7493V72.6493C147.557 70.2493 149.757 68.5493 152.357 68.5493H152.457H171.157C175.057 68.5493 177.857 64.7493 176.657 61.0493C172.557 48.1493 161.657 23.1493 138.057 23.1493C126.457 23.1493 114.557 32.5493 103.957 44.8493L150.757 176.149L152.957 182.149C153.257 183.149 153.457 184.049 153.457 184.349C153.457 187.149 150.957 189.549 148.257 189.549C145.457 189.549 143.257 187.349 143.257 184.549C143.257 183.849 142.857 183.349 142.857 183.349C135.357 185.749 127.657 224.549 158.557 227.349L165.757 248.249C166.457 250.249 168.357 251.649 170.557 251.649C172.257 251.649 173.757 250.849 174.657 249.449C175.657 248.049 175.857 246.349 175.257 244.849L168.857 227.149C240.757 220.149 234.357 97.2493 176.557 80.2493Z" fill="white"/>
</svg>
