<svg width="13" height="5" viewBox="0 0 13 5" fill="none" xmlns="http://www.w3.org/2000/svg">
<path d="M12.34 0.010498L3.31226 3.85441C2.56364 4.17148 1.93498 4.33001 1.4263 4.33001C0.850435 4.33001 0.43276 4.12829 0.173277 3.72484C0.0104578 3.4657 -0.0375311 3.13697 0.0293106 2.73867C0.096495 2.34036 0.274054 1.91566 0.561987 1.46456C0.801932 1.0995 1.19561 0.619614 1.74303 0.0248947C1.55711 0.317187 1.4209 0.63826 1.33992 0.975074C1.19595 1.58933 1.32552 2.04043 1.72863 2.32836C1.92059 2.46273 2.18453 2.52991 2.52045 2.52991C2.78884 2.52991 3.09117 2.48672 3.42744 2.40034L12.34 0.010498Z" fill="black"/>
</svg>
