<svg width="3376" height="647" viewBox="0 0 3376 647" fill="none" xmlns="http://www.w3.org/2000/svg">
<path d="M323.674 3.27539e-05C144.764 4.83947e-05 0.173841 145.153 0.173856 323.5C0.173872 502.41 145.327 647 323.674 647C502.583 647 647.737 501.847 647.737 323.5C647.737 145.153 502.583 1.71131e-05 323.674 3.27539e-05Z" fill="black"/>
<path d="M549.842 467.528C537.465 473.717 513.835 483.843 493.581 483.843C483.454 483.843 473.89 481.031 464.326 474.279C412.003 439.398 430.007 397.764 465.451 333.064C480.641 305.497 496.395 277.366 503.146 248.11C510.46 216.604 517.211 171.033 490.206 136.151C477.266 119.836 458.137 107.458 432.257 99.0192C405.814 90.0174 371.495 85.5166 330.425 84.954L316.922 84.954C275.852 85.5166 241.533 90.0174 215.09 99.0192C189.21 107.458 170.081 119.836 157.141 136.151C130.136 171.033 136.888 216.604 144.201 248.111C150.953 277.366 166.706 305.497 181.896 333.064C217.903 397.764 235.344 439.398 183.021 474.279C173.457 480.468 163.893 483.844 153.766 483.844C133.512 483.844 109.882 473.717 97.5049 467.528L100.318 473.154C126.198 511.974 159.392 532.791 196.524 532.791C212.84 532.791 229.718 528.852 247.159 520.976C265.725 512.537 282.041 497.909 293.293 478.78C304.545 459.651 308.483 438.835 305.67 420.831C301.732 404.516 293.293 382.574 283.166 356.694C257.286 289.744 221.841 198.601 252.785 154.155C265.725 135.589 288.792 126.025 323.674 126.024C358.555 126.024 381.622 135.589 394.562 154.155C424.943 198.601 389.499 289.744 364.181 356.694C354.054 382.574 345.615 404.516 341.677 420.831C338.301 439.398 342.802 460.214 354.055 479.343C365.307 498.471 381.622 513.662 400.188 521.538C417.629 529.415 435.07 533.353 450.823 533.353C487.955 533.353 521.149 512.537 547.029 473.717L549.842 467.528Z" fill="white"/>
<path d="M862.091 87.767L930.167 87.767L930.167 528.852L862.091 528.852L862.091 87.767ZM1264.36 528.852L1196.28 528.852L1196.28 500.159C1179.96 519.288 1150.71 535.604 1115.26 535.604C1046.63 535.604 1009.49 490.032 1009.49 423.644L1009.49 227.294L1077.57 227.294L1077.57 411.83C1077.57 448.962 1095.01 473.717 1133.83 473.717C1163.09 473.717 1188.97 455.15 1196.28 425.332L1196.28 227.294L1264.36 227.294L1264.36 528.852ZM1348.75 87.7669L1416.82 87.7669L1416.82 528.852L1348.75 528.852L1348.75 87.7669ZM1751.58 528.852L1683.5 528.852L1683.5 500.159C1667.18 519.288 1637.93 535.603 1602.48 535.603C1533.85 535.603 1496.71 490.032 1496.71 423.644L1496.71 227.294L1564.79 227.294L1564.79 411.83C1564.79 448.962 1582.23 473.717 1621.05 473.717C1650.31 473.717 1676.19 455.15 1683.5 425.332L1683.5 227.294L1751.58 227.294L1751.58 528.852ZM1835.4 87.7669L1903.48 87.7669L1903.48 528.852L1835.4 528.852L1835.4 87.7669ZM2235.98 435.459C2225.85 495.096 2181.41 536.166 2108.83 536.166C2024.44 536.166 1966.49 472.591 1966.49 379.198C1966.49 289.181 2025.57 221.105 2107.71 221.105C2192.66 221.105 2238.79 281.304 2238.79 369.634L2238.79 393.826L2032.88 393.826C2035.13 446.711 2065.51 478.78 2108.83 478.78C2141.46 478.78 2165.66 464.715 2173.53 435.459L2235.98 435.459ZM2035.13 344.316L2171.84 344.316C2171.28 307.747 2149.9 277.929 2108.83 277.929C2071.14 277.929 2043.57 300.996 2035.13 344.316ZM2613.49 221.105C2675.38 221.105 2711.39 264.426 2711.39 333.064L2711.39 529.415L2643.31 529.415L2643.31 344.316C2643.31 307.184 2626.99 282.429 2593.8 282.429C2569.61 282.429 2546.54 297.62 2540.35 327.438L2540.35 529.977L2472.28 529.977L2472.28 344.879C2472.28 307.747 2455.96 282.992 2422.77 282.992C2398.58 282.992 2375.51 298.183 2369.32 328.001L2369.32 530.54L2301.24 530.54L2301.24 228.982L2369.32 228.982L2369.32 254.299C2383.38 235.17 2410.95 222.23 2444.71 222.23C2478.47 222.23 2508.28 239.109 2524.04 262.176C2544.85 236.296 2572.98 221.105 2613.49 221.105ZM2913.36 535.603C2828.41 535.603 2769.9 470.341 2769.9 378.073C2769.9 285.805 2828.41 220.542 2913.36 220.542C2998.32 220.542 3056.83 285.805 3056.83 378.073C3056.83 470.903 2998.32 535.603 2913.36 535.603ZM2913.36 279.054C2864.42 279.054 2837.97 321.249 2837.97 378.073C2837.97 434.896 2864.42 477.092 2913.36 477.092C2962.31 477.092 2988.75 434.896 2988.75 378.073C2988.75 321.249 2962.31 279.054 2913.36 279.054ZM3119.84 227.856L3187.92 227.856L3187.92 256.549C3204.23 237.421 3234.05 221.105 3269.49 221.105C3338.13 221.105 3375.83 266.676 3375.83 333.064L3375.83 529.415L3307.75 529.415L3307.75 344.316C3307.75 307.184 3289.18 282.429 3250.93 282.429C3221.67 282.429 3195.23 300.996 3187.92 330.814L3187.92 528.852L3119.84 528.852L3119.84 227.856Z" fill="black"/>
</svg>
