<svg width="13" height="6" viewBox="0 0 13 6" fill="none" xmlns="http://www.w3.org/2000/svg">
<path d="M1.74611 0.656307C0.8021 0.656307 0 1.33089 0 2.36951C0 3.30324 0.713663 4.04364 1.73583 4.04364C2.67984 4.04364 3.48194 3.36905 3.48194 2.33043C3.48399 1.39876 2.77033 0.656307 1.74611 0.656307ZM1.74611 3.84414C1.13117 3.84414 0.69104 3.2148 0.69104 2.34689C0.69104 1.51599 1.10854 0.859917 1.73788 0.859917C2.35283 0.859917 2.79295 1.48926 2.79295 2.35717C2.79295 3.18601 2.37545 3.84414 1.74611 3.84414ZM11.5379 1.94172V2.08363L11.7271 2.12065C11.7929 2.13505 11.8114 2.18647 11.7703 2.2893L11.3363 3.33203C11.3178 3.37522 11.2932 3.37522 11.2808 3.33203L10.8777 2.2893C10.8345 2.18235 10.8592 2.13505 10.925 2.12065L11.1122 2.08363V1.94172H9.4401V2.08363L9.62931 2.12065C9.69513 2.13505 9.71981 2.18647 9.67662 2.2893L9.25911 3.38756C9.2406 3.43075 9.21592 3.43075 9.20358 3.38756L8.77991 2.2893C8.74289 2.18235 8.7614 2.13505 8.82721 2.12065L9.01437 2.08363V1.94172H7.95313V2.08569L8.05802 2.10831C8.12795 2.12271 8.17114 2.15973 8.19993 2.22554L8.91771 3.99016H9.24266L9.96044 2.22554C9.99746 2.13299 10.0406 2.09392 10.1147 2.09392H10.1435C10.2052 2.09392 10.2504 2.11654 10.2895 2.20703L11.0402 4.03952L10.8386 4.51873C10.707 4.83751 10.6103 4.8951 10.4869 4.8951C10.4355 4.8951 10.38 4.88687 10.3224 4.88687C10.1764 4.88687 10.0879 4.99176 10.0879 5.10282C10.0879 5.23033 10.1928 5.31877 10.3553 5.31877C10.5898 5.31877 10.8201 5.12956 11.0134 4.6812L12.0315 2.28107C12.0788 2.17413 12.1384 2.12682 12.2372 2.10626L12.34 2.08775V1.94172H11.5379ZM4.95657 3.80918L4.17298 3.9079C3.91589 3.9408 3.83363 3.85648 3.83363 3.72485C3.83363 3.5706 4.00227 3.4472 4.59048 3.4472H4.59871C5.02444 3.4472 5.52832 3.19012 5.52832 2.63071C5.52832 2.45178 5.46251 2.2893 5.33911 2.15562C5.29592 2.06512 5.27741 1.96435 5.28358 1.86563C5.28358 1.45224 5.56534 1.21778 5.85739 1.21778C5.97873 1.21778 6.01781 1.23629 6.01781 1.32267C6.01781 1.34529 6.01164 1.36586 6.01164 1.39259C6.01164 1.53862 6.13298 1.67436 6.3078 1.67436C6.48673 1.67436 6.59779 1.53245 6.59779 1.3782C6.59779 1.14374 6.38595 0.96892 5.99724 0.96892C5.46045 0.96892 5.04912 1.3165 5.04912 1.84712C5.04912 1.89031 5.05529 1.92321 5.05529 1.95406C4.91749 1.89648 4.76735 1.86768 4.61722 1.86974C4.19354 1.86974 3.6876 2.12682 3.6876 2.68624C3.6876 2.94332 3.83363 3.18395 4.0866 3.3238C3.71023 3.37522 3.49633 3.57677 3.49633 3.89144C3.49633 4.21023 3.7493 4.44057 4.22439 4.38504L4.90926 4.30072C5.25067 4.25753 5.36379 4.38093 5.36379 4.5578C5.36379 4.86836 5.0738 5.11722 4.60693 5.11722C4.23673 5.11722 4.09894 4.98559 4.09894 4.79843L4.10511 4.70588C4.10511 4.59277 4.03518 4.51461 3.92206 4.50844C3.79044 4.50844 3.71023 4.60099 3.71023 4.73673C3.71023 5.04729 4.00639 5.32288 4.61105 5.32288C5.2918 5.32288 5.7237 4.88276 5.7237 4.37476C5.72576 3.97371 5.40286 3.75365 4.95657 3.80918ZM4.60488 2.04044C4.82494 2.04044 5.00387 2.2893 5.00387 2.66978C5.00387 2.99679 4.85373 3.28061 4.61927 3.28061C4.39304 3.28061 4.21617 3.03176 4.21617 2.65127C4.21411 2.32632 4.36425 2.04044 4.60488 2.04044Z" fill="black"/>
<path d="M7.76805 3.74953V0.5L6.94127 0.711837V0.810557L7.17573 0.886653C7.21275 0.90105 7.22715 0.929843 7.22715 0.966863V3.73719C7.22715 3.78861 7.18396 3.82769 7.12226 3.82769L6.91248 3.8318L6.69036 3.82769C6.62866 3.82769 6.58547 3.79067 6.58547 3.73719V1.86357L5.76074 2.07335V2.17207L5.9952 2.24817C6.03222 2.26256 6.04662 2.29136 6.04662 2.32838V3.75159C6.04662 3.79478 6.024 3.8174 5.99109 3.82152L5.79982 3.84414V3.99428H8.05187V3.84414L7.82358 3.82152C7.79273 3.81535 7.76805 3.79272 7.76805 3.74953Z" fill="black"/>
</svg>
