<svg width="13" height="5" viewBox="0 0 13 5" fill="none" xmlns="http://www.w3.org/2000/svg">
<path d="M1.805 2.403C1.735 2.307 1.661 2.228 1.661 2.049V1.455C1.661 1.202 1.679 0.971002 1.493 0.797002C1.347 0.657002 1.104 0.607002 0.918004 0.607002C0.555004 0.607002 0.149004 0.743002 0.0640036 1.192C0.0550036 1.239 0.0900036 1.264 0.121004 1.272L0.491004 1.312C0.526004 1.31 0.551004 1.276 0.558004 1.242C0.590004 1.087 0.719004 1.012 0.865004 1.012C0.944004 1.012 1.033 1.042 1.079 1.111C1.133 1.19 1.126 1.297 1.126 1.388V1.438C0.904004 1.462 0.615004 1.479 0.407004 1.57C0.28338 1.61975 0.178035 1.70629 0.105235 1.81791C0.0324351 1.92952 -0.00430053 2.06081 3.57666e-06 2.194C3.57666e-06 2.591 0.250004 2.789 0.572004 2.789C0.844004 2.789 0.992004 2.725 1.202 2.512C1.271 2.612 1.293 2.662 1.42 2.767C1.43426 2.77462 1.45049 2.77775 1.46655 2.77596C1.48262 2.77418 1.49777 2.76757 1.51 2.757L1.804 2.505C1.836 2.479 1.83 2.438 1.805 2.403ZM1.125 1.827C1.125 1.976 1.129 2.099 1.055 2.232C0.994004 2.339 0.897004 2.405 0.790004 2.405C0.643004 2.405 0.558004 2.293 0.558004 2.128C0.558004 1.803 0.849004 1.744 1.126 1.744L1.125 1.827ZM6.812 2.403C6.742 2.307 6.668 2.228 6.668 2.049V1.455C6.668 1.202 6.686 0.971002 6.5 0.797002C6.353 0.657002 6.11 0.607002 5.925 0.607002C5.561 0.607002 5.155 0.743002 5.071 1.192C5.061 1.239 5.097 1.265 5.128 1.272L5.498 1.312C5.532 1.31 5.558 1.276 5.564 1.242C5.596 1.087 5.726 1.012 5.871 1.012C5.95 1.012 6.039 1.042 6.085 1.111C6.139 1.19 6.132 1.297 6.132 1.388V1.438C5.911 1.463 5.621 1.479 5.414 1.57C5.29019 1.61959 5.18463 1.70606 5.11165 1.81769C5.03866 1.92932 5.00178 2.0607 5.006 2.194C5.006 2.591 5.256 2.789 5.578 2.789C5.85 2.789 5.998 2.725 6.208 2.512C6.277 2.612 6.3 2.662 6.427 2.767C6.44126 2.77462 6.45749 2.77775 6.47356 2.77596C6.48962 2.77418 6.50477 2.76757 6.517 2.757V2.758C6.594 2.69 6.733 2.57 6.811 2.505C6.841 2.479 6.838 2.438 6.812 2.403ZM6.061 2.232C6 2.339 5.903 2.405 5.796 2.405C5.649 2.405 5.564 2.293 5.564 2.128C5.564 1.803 5.856 1.744 6.132 1.744V1.827C6.132 1.976 6.136 2.099 6.061 2.232ZM11.221 2.762H10.84C10.8218 2.76148 10.8045 2.75388 10.7918 2.74081C10.7791 2.72773 10.772 2.71023 10.772 2.692L10.771 0.732002C10.7723 0.713787 10.7806 0.696794 10.7943 0.68465C10.8079 0.672507 10.8258 0.666174 10.844 0.667002H11.198C11.2139 0.667087 11.2293 0.672579 11.2417 0.682575C11.254 0.692571 11.2626 0.706476 11.266 0.722002V1.022H11.274C11.381 0.754002 11.53 0.626002 11.794 0.626002C11.882 0.621636 11.9696 0.640608 12.0479 0.680999C12.1263 0.721389 12.1925 0.781762 12.24 0.856002C12.34 1.014 12.34 1.277 12.34 1.467V2.701C12.3371 2.71839 12.328 2.73415 12.3144 2.74536C12.3008 2.75657 12.2836 2.76248 12.266 2.762H11.883C11.8662 2.76166 11.8502 2.75532 11.8377 2.74412C11.8252 2.73293 11.8172 2.71763 11.815 2.701V1.636C11.815 1.422 11.84 1.109 11.577 1.109C11.5291 1.11106 11.4828 1.12687 11.4436 1.15453C11.4044 1.18219 11.374 1.22054 11.356 1.265C11.3098 1.383 11.289 1.50942 11.295 1.636V2.692C11.2942 2.71101 11.2861 2.72897 11.2722 2.74204C11.2584 2.75512 11.24 2.76228 11.221 2.762ZM9.612 0.626002C10.179 0.626002 10.485 1.113 10.485 1.731C10.485 2.329 10.147 2.804 9.612 2.804C9.056 2.804 8.752 2.317 8.752 1.711C8.752 1.101 9.059 0.626002 9.612 0.626002ZM9.616 1.026C9.334 1.026 9.316 1.41 9.316 1.649C9.316 1.888 9.312 2.399 9.612 2.399C9.908 2.399 9.922 1.987 9.922 1.736C9.92843 1.56082 9.90922 1.38563 9.865 1.216C9.822 1.08 9.737 1.026 9.615 1.026M2.554 2.762H2.172C2.15461 2.76182 2.1379 2.75516 2.12514 2.74333C2.11239 2.7315 2.10449 2.71534 2.103 2.698V0.738002C2.103 0.698002 2.137 0.668002 2.177 0.668002H2.533C2.57 0.669002 2.6 0.698002 2.603 0.733002V0.989002H2.61C2.702 0.741002 2.877 0.626002 3.112 0.626002C3.351 0.626002 3.501 0.741002 3.608 0.989002C3.64568 0.880224 3.71714 0.786332 3.81194 0.72103C3.90675 0.655728 4.01994 0.622433 4.135 0.626002C4.295 0.626002 4.47 0.692002 4.577 0.840002C4.699 1.005 4.674 1.245 4.674 1.455V2.692C4.674 2.731 4.64 2.762 4.6 2.762H4.218C4.19979 2.76148 4.18249 2.75388 4.16979 2.74081C4.1571 2.72773 4.15 2.71023 4.15 2.692V1.652C4.15 1.57 4.157 1.364 4.139 1.286C4.11 1.154 4.025 1.116 3.914 1.116C3.8643 1.11712 3.81606 1.13304 3.77544 1.16172C3.73483 1.1904 3.70369 1.23054 3.686 1.277C3.646 1.377 3.651 1.541 3.651 1.653V2.692C3.651 2.732 3.618 2.762 3.577 2.762H3.195C3.17679 2.76148 3.15949 2.75388 3.14679 2.74081C3.1341 2.72773 3.127 2.71023 3.127 2.692V1.652C3.127 1.434 3.162 1.112 2.891 1.112C2.617 1.112 2.627 1.426 2.627 1.652V2.692C2.62701 2.70145 2.62511 2.71081 2.6214 2.7195C2.6177 2.7282 2.61227 2.73605 2.60545 2.74259C2.59863 2.74913 2.59056 2.75422 2.58171 2.75756C2.57287 2.7609 2.56345 2.76241 2.554 2.762ZM7.133 1.013V0.733002C7.133 0.714437 7.14038 0.696632 7.15351 0.683504C7.16663 0.670377 7.18444 0.663002 7.203 0.663002H8.46C8.5 0.663002 8.532 0.691002 8.532 0.733002V0.973001C8.532 1.013 8.498 1.066 8.438 1.149L7.788 2.078C8.028 2.072 8.284 2.108 8.504 2.231C8.553 2.259 8.566 2.301 8.57 2.341V2.64C8.57 2.68 8.525 2.728 8.478 2.704C8.27262 2.5987 8.04507 2.54394 7.81426 2.54429C7.58346 2.54464 7.35607 2.60008 7.151 2.706C7.108 2.729 7.062 2.682 7.062 2.641V2.357C7.062 2.312 7.062 2.234 7.109 2.165L7.862 1.084H7.206C7.19664 1.08427 7.18733 1.08266 7.1786 1.07926C7.16988 1.07586 7.16192 1.07075 7.15521 1.06422C7.14849 1.05769 7.14316 1.04989 7.13952 1.04126C7.13587 1.03263 7.134 1.02337 7.134 1.014M7.951 3.174C7.859 3.057 7.345 3.119 7.113 3.146C7.043 3.155 7.033 3.094 7.096 3.049C7.506 2.761 8.179 2.844 8.256 2.941C8.336 3.038 8.236 3.712 7.851 4.034C7.792 4.084 7.736 4.057 7.762 3.992C7.849 3.776 8.042 3.292 7.951 3.174ZM7.652 3.515C6.935 4.044 5.896 4.325 5.001 4.325C3.80519 4.33117 2.65014 3.89076 1.762 3.09C1.695 3.03 1.755 2.947 1.836 2.994C2.82224 3.55902 3.93939 3.85555 5.076 3.854C5.871 3.854 6.744 3.688 7.548 3.347C7.669 3.297 7.771 3.427 7.652 3.515Z" fill="black"/>
</svg>
