<svg width="100%" version="1.1" xmlns="http://www.w3.org/2000/svg" xmlns:xlink="http://www.w3.org/1999/xlink" x="0px" y="0px" viewBox="0 40 2104 540" xml:space="preserve"><g><path d="M1993.7,67.5c-4.2-4.2-9.8-6.6-15.8-6.5c-10.2,0.1-250.7,3.2-354.7,105.9c-36.9,36.5-60.8,87.9-65.7,141.2c-5.1,56.9,11.5,108,47,143.9c0,0,0.1,0.1,0.1,0.1c-29-29.4-42.6-71.1-38.4-117.7c3.9-43.6,23.5-85.7,53.7-115.5c85.1-84.1,281.9-86.6,290.2-86.7c4.9,0,9.5,1.9,12.9,5.3c3.4,3.5,5.3,8.1,5.2,13c-0.2,8.3-5.1,205.1-90.2,289.1c-30.2,29.8-72.5,48.9-116.2,52.3c-5.2,0.4-10.3,0.6-15.3,0.6c-39.1-0.2-73.8-13.4-99.4-38c31.3,30.2,73.9,46.5,121.9,46.8c6.2,0,12.4-0.2,18.7-0.7c53.3-4.2,105.1-27.5,142-63.9c104-102.7,110-343.2,110.2-353.4C2000.2,77.5,1997.9,71.7,1993.7,67.5z"></path><path d="M1604.7,452.1C1604.7,452.1,1604.7,452.2,1604.7,452.1c0.1,0.1,0.1,0.1,0.2,0.2c0,0,0,0-0.1-0.1C1604.7,452.2,1604.7,452.2,1604.7,452.1z"></path><path d="M1606.8,454.3c0.1,0.1,0.3,0.2,0.4,0.4C1607.1,454.6,1607,454.4,1606.8,454.3C1606.9,454.3,1606.9,454.3,1606.8,454.3z"></path><path d="M1604.9,452.4c0.6,0.7,1.3,1.3,2,1.9C1606.2,453.6,1605.5,453,1604.9,452.4C1604.8,452.3,1604.9,452.3,1604.9,452.4z"></path><path d="M1684.2,483.8c3.9,0,7.9-0.1,11.9-0.4c33.9-2.7,66.9-17.5,90.4-40.7c66.2-65.4,70-218.4,70.1-224.9c0.1-3.8-1.4-7.4-4-10.1c-2.7-2.7-6.2-4.2-10.1-4.2c-6.5,0.1-159.6,2-225.7,67.4c-23.5,23.2-38.7,56-41.8,89.9c-3.3,36.2,7.3,68.6,29.8,91.4c0.7,0.7,1.4,1.4,2.1,2.1C1626.8,473.4,1653.8,483.6,1684.2,483.8z"></path><path d="M0.1,296.9c0-91.9,64.3-172.1,158.1-172.1c71.1,0,125.2,47.9,123.3,107.8h-38.7c1.9-51.7-25.6-87.5-85.1-87.5c-66.2,0-103.9,43.5-103.9,120.4c0,93.3,54.6,168.2,132,168.2c16,0,30.5-2.9,44-8.7V321.6h-55.1v-15.5h113.6v108.8c-26.1,21.3-70.6,48.3-133.4,48.3C68.3,463.2,0.1,395.1,0.1,296.9z"></path><path d="M472.1,416.8c-20.8,27.6-45,46.4-77.8,46.4c-41.6,0-59.5-26.6-59.5-57.1c0-43,41.6-67.2,137.3-93.8v-12.6c0-44.5-21.3-75.9-58.5-75.9c-28.5,0-41.6,20.3-38.7,57.1h-29.5c0-48.8,50.8-78.8,90.9-78.8c58,0,87,31.9,87,84.1v172.1h-51.2V416.8z M420.9,427c20.3,0,35.8-8.2,51.2-22.2v-77.8c-77.4,21.3-88.5,41.1-88.5,64.3C383.7,414.4,397.7,427,420.9,427z"></path><path d="M624.9,281.9v176.5h-51.7V211.8l51.2-4.8h0.5v59c22.2-40.1,42.1-63.8,75.9-63.8c4.8,0,15,0.5,19.3,1.5v55.6h-1.5c-7.7-4.8-20.3-9.2-36.3-9.2C659.7,250,639.9,262.1,624.9,281.9z"></path><path d="M740,342.9c0-76.4,44.5-140.7,118.9-140.7c19.8,0,37.7,2.9,54.1,8.2V109.8l51.2-4.4h0.5v352.9h-51.7v-62.9c-24.2,44.5-45.9,67.7-87,67.7C773.8,463.2,740,412.5,740,342.9z M913.1,382v-133c-14-19.8-33.8-32.9-57.1-32.9c-51.7,0-66.7,58.5-66.7,108.3c0,53.2,21.3,92.8,59.5,92.8C873.4,417.3,896.6,405.2,913.1,382z"></path><path d="M1089.4,555.1h-22.7l-0.5-1.9c16-32.4,29.5-62.4,44-98.1L999.5,212.8V207h64.3l72,178.9c26.1-75.9,40.1-125.2,55.6-178.9h23.2v2.9c-17.4,44.5-51.7,135.4-86.1,228.7C1110.2,489.8,1102.9,510.1,1089.4,555.1z"></path><path d="M1304,282.9v175.5h-51.7V211.8l51.2-4.8h0.5v61.4c23.7-43.5,46.4-66.2,83.6-66.2c48.3,0,72,31.9,72,84.1v172.1H1408v-147c0-43-16.9-61.4-46.9-61.4C1339.8,250,1321,261.6,1304,282.9z"></path><path d="M2103.6,99.9c0,21.2-17.3,38.5-38.5,38.5s-38.5-17.3-38.5-38.5s17.3-38.5,38.5-38.5S2103.6,78.8,2103.6,99.9zM2033.7,99.9c0,17.7,14,32,31.3,32c17.3,0,31.5-14.4,31.5-32s-14.2-32-31.5-32C2047.7,67.9,2033.7,82.3,2033.7,99.9zM2066.1,79.8c8.8,0,14.7,4.9,14.7,13.1c0,6.5-4.4,10.3-8.8,11.5l10.1,13.8l-0.9,0.9h-5.6l-1.8-0.9l-8.8-12.2h-6v12.2l-0.9,0.9h-4.5l-0.9-0.9V80.7l0.9-0.9H2066.1z M2059.3,99.6h6.8c4.7,0,7.7-2.6,7.7-6.6c0-4-2.8-6.7-7.7-6.7h-6.8V99.6z"></path></g></svg>