<svg width="16" height="16" viewBox="0 0 16 16" fill="none" xmlns="http://www.w3.org/2000/svg">
<mask id="mask0_56_6" style="mask-type:alpha" maskUnits="userSpaceOnUse" x="0" y="0" width="16" height="16">
<path d="M0 0H16V16H0V0Z" fill="white"/>
</mask>
<g mask="url(#mask0_56_6)">
<path d="M4.9611 3.56665C5.38733 3.56665 5.78077 3.59963 6.14142 3.69857C6.50208 3.76453 6.79715 3.89645 7.05948 4.06135C7.32175 4.22625 7.51848 4.4571 7.64962 4.75392C7.78075 5.05074 7.84635 5.41352 7.84635 5.80928C7.84635 6.271 7.74802 6.6668 7.51848 6.9636C7.32175 7.2604 6.99388 7.52426 6.60044 7.72213C7.15782 7.887 7.58402 8.18386 7.84635 8.5796C8.10862 8.97533 8.27255 9.47006 8.27255 10.0307C8.27255 10.4925 8.17422 10.8882 8.01028 11.218C7.84635 11.5478 7.58402 11.8446 7.28895 12.0425C6.99388 12.2404 6.63323 12.4053 6.23979 12.5042C5.84634 12.6031 5.4529 12.6691 5.05946 12.6691H0.666016V3.56665H4.9611ZM4.6988 7.2604C5.05946 7.2604 5.35454 7.16146 5.58405 6.9966C5.81356 6.83166 5.91192 6.53484 5.91192 6.17206C5.91192 5.97418 5.87913 5.7763 5.81356 5.64438C5.74798 5.51246 5.64962 5.41352 5.51848 5.31458C5.38733 5.24862 5.25618 5.18266 5.09224 5.14968C4.92831 5.1167 4.76438 5.1167 4.56766 5.1167H2.66602V7.2604H4.6988ZM4.79716 11.1521C4.99388 11.1521 5.19061 11.1191 5.35454 11.0861C5.51848 11.0531 5.68241 10.9871 5.81356 10.8882C5.9447 10.7893 6.04306 10.6903 6.14142 10.5254C6.207 10.3605 6.27258 10.1627 6.27258 9.9318C6.27258 9.47006 6.14143 9.14026 5.87913 8.9094C5.61684 8.71153 5.25618 8.6126 4.82995 8.6126H2.66602V11.1521H4.79716ZM11.125 11.1191C11.3873 11.3829 11.7807 11.5148 12.3053 11.5148C12.666 11.5148 12.9939 11.4159 13.2561 11.251C13.5185 11.0531 13.6824 10.8552 13.748 10.6573H15.3545C15.0922 11.4489 14.6988 12.0095 14.1742 12.3723C13.6496 12.7021 13.0267 12.9 12.2725 12.9C11.7479 12.9 11.2889 12.8011 10.8627 12.6361C10.4365 12.4713 10.1086 12.2404 9.81355 11.9106C9.51848 11.6137 9.28895 11.251 9.15782 10.8223C8.99388 10.3935 8.92828 9.9318 8.92828 9.40413C8.92828 8.9094 8.99388 8.44766 9.15782 8.01893C9.32175 7.5902 9.55128 7.2274 9.84635 6.8976C10.1414 6.6008 10.5021 6.33696 10.8955 6.17206C11.3217 6.00716 11.7479 5.90822 12.2725 5.90822C12.8299 5.90822 13.3217 6.00716 13.748 6.23802C14.1742 6.46888 14.5021 6.73273 14.7643 7.12846C15.0267 7.49126 15.2234 7.92 15.3545 8.38173C15.4201 8.84346 15.4529 9.30513 15.4201 9.83286H10.666C10.666 10.3605 10.8627 10.8552 11.125 11.1191ZM13.1906 7.6562C12.9611 7.42533 12.6004 7.2934 12.1742 7.2934C11.8791 7.2934 11.6496 7.35933 11.4529 7.45826C11.2561 7.5572 11.125 7.68913 10.9939 7.82106C10.8627 7.953 10.7971 8.11786 10.7643 8.2828C10.7316 8.44766 10.6988 8.5796 10.6988 8.71153H13.6496C13.5841 8.2168 13.4201 7.887 13.1906 7.6562ZM10.3053 4.19326H13.9775V5.08372H10.3053V4.19326Z" fill="#515151"/>
</g>
</svg>
