<svg width="16" height="16" viewBox="0 0 16 16" fill="none" xmlns="http://www.w3.org/2000/svg">
<mask id="mask0_56_3" style="mask-type:alpha" maskUnits="userSpaceOnUse" x="0" y="0" width="16" height="16">
<path d="M0 0H16V16H0V0Z" fill="white"/>
</mask>
<g mask="url(#mask0_56_3)">
<path d="M13.3265 7.71444C13.2693 6.63013 12.8882 5.63167 12.2782 4.81402C12.1173 4.98942 11.9197 5.17991 11.6645 5.39443C11.0594 5.90309 10.3265 6.36209 9.45625 6.73404C9.56718 6.96711 9.66925 7.19331 9.75905 7.40657L9.75985 7.40837C9.77745 7.44951 9.79258 7.48711 9.82205 7.56124C9.82592 7.57084 9.82952 7.57984 9.83298 7.58837C10.8421 7.47484 11.9057 7.51664 12.9373 7.65637C13.0744 7.67491 13.204 7.69437 13.3265 7.71444ZM7.07025 2.74757C7.18618 2.91085 7.30745 3.08577 7.45418 3.30256C7.86258 3.90597 8.26465 4.54265 8.64092 5.19675C8.71725 5.32948 8.79198 5.46197 8.86492 5.59412C9.68018 5.27333 10.3537 4.86858 10.8965 4.41661C11.116 4.23379 11.2929 4.06204 11.4275 3.91319C10.5007 3.13522 9.30538 2.66671 8.00065 2.66671C7.68332 2.66671 7.37238 2.69443 7.07025 2.74757ZM2.83576 6.66507C3.22162 6.65639 3.6571 6.63298 4.196 6.58349C5.26748 6.48509 6.36159 6.30837 7.43725 6.0352C7.04858 5.35818 6.62657 4.68225 6.197 4.03589C5.99051 3.72521 5.7897 3.43332 5.63721 3.21765C4.26426 3.89746 3.22594 5.15109 2.83576 6.66507ZM3.85642 11.3574C4.11472 10.9796 4.45439 10.5543 4.90596 10.0916C5.87531 9.09857 7.01972 8.32524 8.34325 7.89824C8.36178 7.89277 8.37425 7.88911 8.38465 7.88604C8.27465 7.64344 8.17145 7.42704 8.06752 7.22284C6.84352 7.57917 5.55418 7.80204 4.26918 7.91751C3.64278 7.97377 3.08068 7.99877 2.66732 8.00297C2.668 9.27417 3.11342 10.4414 3.85642 11.3574ZM10.0037 12.9444C9.93405 12.583 9.84525 12.1804 9.72725 11.716C9.51325 10.8742 9.24518 10.008 8.91598 9.13857C7.58145 9.62291 6.51781 10.3316 5.69604 11.1766C5.30001 11.5838 5.00894 11.9692 4.81826 12.2802C5.7066 12.9418 6.80792 13.3334 8.00065 13.3334C8.70905 13.3334 9.38525 13.1952 10.0037 12.9444ZM11.2525 12.2276C12.2722 11.4422 12.9997 10.296 13.2441 8.98024C13.0175 8.92437 12.73 8.86704 12.4137 8.82311C11.7177 8.72651 11.0016 8.71037 10.2946 8.80124C10.5962 9.65097 10.8435 10.4888 11.0412 11.2908C11.1275 11.641 11.1979 11.9572 11.2525 12.2276ZM8.00065 14.6667C4.31875 14.6667 1.33398 11.6819 1.33398 8.00004C1.33398 4.31814 4.31875 1.33337 8.00065 1.33337C11.6825 1.33337 14.6673 4.31814 14.6673 8.00004C14.6673 11.6819 11.6825 14.6667 8.00065 14.6667Z" fill="#515151"/>
</g>
</svg>
