<svg width="24" height="24" viewBox="0 0 24 24" fill="none" xmlns="http://www.w3.org/2000/svg">
<mask id="mask0_59_656" style="mask-type:alpha" maskUnits="userSpaceOnUse" x="0" y="0" width="24" height="24">
<path d="M0 0H24V24H0V0Z" fill="white"/>
</mask>
<g mask="url(#mask0_59_656)">
<path d="M8.16667 12L4.33333 8.16663H1.77778C1.43889 8.16663 1.11388 8.30125 0.874252 8.54088C0.634623 8.78051 0.5 9.10552 0.5 9.4444V14.5555C0.5 14.8944 0.634623 15.2194 0.874252 15.459C1.11388 15.6987 1.43889 15.8333 1.77778 15.8333H4.33333L8.16667 12Z" stroke="black" stroke-width="1.5" stroke-linecap="round" stroke-linejoin="round"/>
<path d="M15.832 12L19.6654 8.16663H22.2209C22.5598 8.16663 22.8848 8.30125 23.1244 8.54088C23.3641 8.78051 23.4987 9.10552 23.4987 9.4444V14.5555C23.4987 14.8944 23.3641 15.2194 23.1244 15.459C22.8848 15.6987 22.5598 15.8333 22.2209 15.8333H19.6654L15.832 12Z" stroke="black" stroke-width="1.5" stroke-linecap="round" stroke-linejoin="round"/>
<path d="M12.0013 15.8334L8.16797 19.6667V22.2223C8.16797 22.5612 8.30259 22.8862 8.54222 23.1258C8.78185 23.3654 9.10686 23.5 9.44575 23.5H14.5569C14.8957 23.5 15.2208 23.3654 15.4604 23.1258C15.7 22.8862 15.8346 22.5612 15.8346 22.2223V19.6667L12.0013 15.8334Z" stroke="black" stroke-width="1.5" stroke-linecap="round" stroke-linejoin="round"/>
<path d="M12.0013 8.16667L8.16797 4.33333V1.77778C8.16797 1.43889 8.30259 1.11388 8.54222 0.874252C8.78185 0.634623 9.10686 0.5 9.44575 0.5H14.5569C14.8957 0.5 15.2208 0.634623 15.4604 0.874252C15.7 1.11388 15.8346 1.43889 15.8346 1.77778V4.33333L12.0013 8.16667Z" stroke="black" stroke-width="1.5" stroke-linecap="round" stroke-linejoin="round"/>
</g>
</svg>
