<svg width="16" height="16" viewBox="0 0 16 16" fill="none" xmlns="http://www.w3.org/2000/svg">
<mask id="mask0_56_9" style="mask-type:alpha" maskUnits="userSpaceOnUse" x="0" y="0" width="16" height="16">
<path d="M0 0H16V16H0V0Z" fill="white"/>
</mask>
<g mask="url(#mask0_56_9)">
<path d="M4.62764 3.33327C4.62739 3.87614 4.29804 4.36466 3.79488 4.56847C3.29172 4.77228 2.71523 4.65068 2.33725 4.26101C1.95927 3.87134 1.85528 3.29141 2.07432 2.79469C2.29336 2.29797 2.79168 1.98365 3.3343 1.99993C4.05502 2.02157 4.62796 2.61223 4.62764 3.33327ZM4.66764 5.65327H2.00097V13.9999H4.66764V5.65327ZM8.88098 5.65327H6.22764V13.9999H8.85432V9.61991C8.85432 7.17991 12.0343 6.95325 12.0343 9.61991V13.9999H14.6677V8.71324C14.6677 4.59993 9.96099 4.75327 8.85432 6.77325L8.88098 5.65327Z" fill="#515151"/>
</g>
</svg>
