<svg width="64" height="64" viewBox="0 0 64 64" fill="none" xmlns="http://www.w3.org/2000/svg">
<path d="M29.4332 53.8944C23.4668 53.8944 19.9708 41.9952 17.3372 30.3552C17.1372 29.4736 16.9804 28.7776 16.8668 28.3408C15.8828 24.5408 15.0428 24.5408 14.5916 24.5408C14.5404 24.5408 14.4876 24.5408 14.4348 24.544C13.9964 24.5856 12.5676 25.5056 11.438 26.48C11.1836 26.6992 10.8508 26.8032 10.518 26.7696C10.1852 26.736 9.87955 26.5648 9.67475 26.3024L7.45555 23.4336C7.06835 22.9376 7.12595 22.2256 7.58675 21.7968C7.61715 21.7664 10.646 18.9392 16.9772 13.4992C19.0284 11.7392 21.0444 10.8496 22.9756 10.8496C27.0316 10.8496 29.4156 14.7488 29.8108 17.5152C30.0892 19.4704 30.7916 23.8544 31.6636 27.9312C33.0188 34.2544 33.9676 36.0464 34.3228 36.5264C36.0892 35.7472 39.95 30.0512 40.7308 25.6928C40.966 24.3632 40.7692 23.7264 40.5804 23.6256C39.9116 23.2624 39.246 23.08 38.6028 23.08C37.2364 23.08 36.3244 23.912 36.3148 23.92C35.934 24.288 35.3644 24.368 34.8972 24.12C34.43 23.8736 34.1772 23.3488 34.2668 22.8256C34.2892 22.7072 34.7964 19.8528 36.6444 16.8704C39.1388 12.8512 42.8748 10.5248 47.4476 10.1536C47.8412 10.1216 48.2316 10.1056 48.6044 10.1056C52.5196 10.1056 54.4827 11.888 55.4379 13.3808C57.8219 17.1104 57.0604 23.456 53.2364 31.736C47.4972 44.16 37.0396 53.8944 29.4332 53.8944ZM14.59 22.0976C17.3884 22.0976 18.4748 24.8016 19.2316 27.728C19.3548 28.1984 19.5164 28.9152 19.7212 29.8192C20.4652 33.1072 21.71 38.6112 23.5004 43.3728C26.142 50.4016 28.3516 51.4528 29.4332 51.4528C35.206 51.4528 45.1004 43.5216 51.022 30.7104C54.3788 23.4432 55.2395 17.608 53.3819 14.7008C52.4699 13.2752 50.8636 12.552 48.6076 12.552C48.302 12.552 47.9788 12.5664 47.6492 12.5904C43.8524 12.9008 40.8636 14.7552 38.766 18.0944C38.182 19.024 37.7484 19.9488 37.4348 20.752C37.7948 20.6784 38.1852 20.6368 38.6028 20.6368C39.6572 20.6368 40.7132 20.9184 41.7436 21.4768C42.6684 21.9744 43.6604 23.1856 43.1356 26.1216C42.7308 28.384 41.4444 31.4208 39.7804 34.0496C38.4428 36.1584 36.422 38.736 34.3964 39.0256C34.3148 39.0384 34.23 39.0448 34.15 39.0448C32.5932 39.0448 31.2652 37.4112 29.4588 29.2848C28.2492 23.8432 27.4268 18.1024 27.3916 17.8592C27.1276 16.0176 25.542 13.2912 22.974 13.2912C21.6444 13.2912 20.1628 13.9856 18.5676 15.3536C14.1484 19.1488 11.3532 21.6592 10.0732 22.8256L10.8428 23.8208C11.822 23.0816 13.214 22.1824 14.2556 22.1056C14.3708 22.1008 14.4828 22.0976 14.59 22.0976Z" fill="white"/>
</svg>
